<svg id="房态icon" xmlns="http://www.w3.org/2000/svg" width="100" height="100" viewBox="0 0 51 51">
  <metadata><?xpacket begin="﻿" id="W5M0MpCehiHzreSzNTczkc9d"?>
<x:xmpmeta xmlns:x="adobe:ns:meta/" x:xmptk="Adobe XMP Core 5.6-c140 79.160451, 2017/05/06-01:08:21        ">
   <rdf:RDF xmlns:rdf="http://www.w3.org/1999/02/22-rdf-syntax-ns#">
      <rdf:Description rdf:about=""/>
   </rdf:RDF>
</x:xmpmeta>
                                                                                                    
                                                                                                    
                                                                                                    
                                                                                                    
                                                                                                    
                                                                                                    
                                                                                                    
                                                                                                    
                                                                                                    
                                                                                                    
                                                                                                    
                                                                                                    
                                                                                                    
                                                                                                    
                                                                                                    
                                                                                                    
                                                                                                    
                                                                                                    
                                                                                                    
                                                                                                    
                           
<?xpacket end="w"?></metadata>
<defs>
    <style>
      .cls-1 {
        stroke: #ccc;
      }

      .cls-1, .cls-4 {
        stroke-width: 1px;
      }

      .cls-2 {
        font-size: 12px;
        font-family: "PingFang SC";
        font-weight: 300;
      }

      .cls-2, .cls-3 {
        fill: #222;
      }

      .cls-3, .cls-4 {
        fill-rule: evenodd;
      }

      .cls-4 {
        stroke: #222;
      }
    </style>
  </defs>
  <rect id="矩形_12" data-name="矩形 12" class="cls-1" x="0.5" y="0.5" width="50" height="50"/>
  <text id="房态" class="cls-2" x="13.468" y="44.297">房态</text>
  <g id="组_2" data-name="组 2">
    <path id="矩形_13" data-name="矩形 13" class="cls-3" d="M349,725h6a2,2,0,0,1,2,2v6a2,2,0,0,1-2,2h-6a2,2,0,0,1-2-2v-6A2,2,0,0,1,349,725Zm-11,0h6a2,2,0,0,1,2,2v6a2,2,0,0,1-2,2h-6a2,2,0,0,1-2-2v-6A2,2,0,0,1,338,725Zm0-11h6a2,2,0,0,1,2,2v6a2,2,0,0,1-2,2h-6a2,2,0,0,1-2-2v-6A2,2,0,0,1,338,714Z" transform="translate(-321.5 -704.5)"/>
    <path id="矩形_14" data-name="矩形 14" class="cls-4" d="M353.908,713.343l4.243,4.243a2,2,0,0,1,0,2.828l-4.243,4.243a2,2,0,0,1-2.828,0l-4.243-4.243a2,2,0,0,1,0-2.828l4.243-4.243A2,2,0,0,1,353.908,713.343Z" transform="translate(-321.5 -704.5)"/>
  </g>
</svg>
